# xmcd CD database file generated by Grip 3.3.1
# 
# Track frame offsets:
#       150
#       38469
#       64501
#       84589
#       109270
#       125122
#       148391
#       162826
#       182770
#       208237
#       223169
#       255150
# 
# Disc length: 3900 seconds
# 
# Revision: 1
# Processed by: cddbd v1.5.2PL0 Copyright (c) Steve Scherf et al.
# Submitted via: Grip 3.3.1
# 
DISCID=b10f3a0c
DTITLE=Escher String Quartet (Adam Barnett-Hart - violin I, Wu Jie - vio
DTITLE=lin II, Pierre Lapointe - viola, Dane Johansen -cello) - Zemlinsk
DTITLE=y - String Quartets I
DYEAR=2011
DGENRE=Classical
TTITLE0=I. Allegretto: Gemächlich, innig bewegt - String Quartet No.3, O
TTITLE0=p.19 (1924) - Alexander Zemlinsky
TTITLE1=II. Thema mit Variationen, Geheimnisvoll bewegt, nicht zu schnell
TTITLE1=Variationen I-VII - String Quartet No.3, Op.19 (1924) - Alexan
TTITLE1=der Zemlinsky
TTITLE2=III. Romanze: Sehr mässige Achtel, Andante sostenuto - String Qu
TTITLE2=artet No.3, Op.19 (1924) - Alexander Zemlinsky
TTITLE3=IV. Burleske: Sehr lebhaft, Allegro moderato - String Quartet No.
TTITLE3=3, Op.19 (1924) - Alexander Zemlinsky
TTITLE4=I. Präludium: poco adagio - String Quartet No.4 'Suite', Op.25 (
TTITLE4=1936) - Alexander Zemlinsky
TTITLE5=II. Burleske: Vivace - String Quartet No.4 'Suite', Op.25 (1936) 
TTITLE5=/ Alexander Zemlinsky
TTITLE6=III. Adagietto: Adagio - String Quartet No.4 'Suite', Op.25 (1936
TTITLE6=) - Alexander Zemlinsky
TTITLE7=IV. Intermezzo: Allegretto - String Quartet No.4 'Suite', Op.25 (
TTITLE7=1936) - Alexander Zemlinsky
TTITLE8=V. Barcarole (Thema mit Variationen): Poco adagio - String Quarte
TTITLE8=t No.4 'Suite', Op.25 (1936) - Alexander Zemlinsky
TTITLE9=VI. Finale - Doppelfuge: Allegro molto energico - String Quartet 
TTITLE9=No.4 'Suite', Op.25 (1936) - Alexander Zemlinsky
TTITLE10=No.1 - Introduction: Andante con moto - Vivace - Zwei Sätze (192
TTITLE10=7) - Alexander Zemlinsky
TTITLE11=No.2 - Adagio, misterrioso - Tempo di minuett - Zwei Sätze (1927
TTITLE11=) - Alexander Zemlinsky
EXTD=
EXTT0=
EXTT1=
EXTT2=
EXTT3=
EXTT4=
EXTT5=
EXTT6=
EXTT7=
EXTT8=
EXTT9=
EXTT10=
EXTT11=
PLAYORDER=
